Coordinates
version=1
nRows=13
nColumns=36
inDegrees=yes

Units are S.I. units (second, meters, Newtons, ...)
If the header above contains a line with 'inDegrees', this indicates whether rotational values are in degrees (yes) or radians (no).

endheader
time	pelvis_tilt	pelvis_list	pelvis_rotation	pelvis_tx	pelvis_ty	pelvis_tz	hip_flexion_r	hip_adduction_r	hip_rotation_r	knee_angle_r	knee_angle_r_beta	ankle_angle_r	subtalar_angle_r	mtp_angle_r	hip_flexion_l	hip_adduction_l	hip_rotation_l	knee_angle_l	knee_angle_l_beta	ankle_angle_l	subtalar_angle_l	mtp_angle_l	lumbar_extension	lumbar_bending	lumbar_rotation	arm_flex_r	arm_add_r	arm_rot_r	elbow_flex_r	pro_sup_r	arm_flex_l	arm_add_l	arm_rot_l	elbow_flex_l	pro_sup_l
      2.16666670	     -5.89954943	     -0.05901651	      1.02736026	      0.56594899	      0.95312366	     -0.22159279	     10.01669152	     -5.48830134	     -7.65262224	      9.24736123	      0.16139690	      1.41057234	    -25.85119008	     -7.49999987	      5.76734679	     -5.27418489	    -13.21432886	      3.52525046	      0.06152723	      4.18067592	    -14.86988141	     -7.49999987	     -2.28462711	      2.70724675	      0.89367245	     63.49237818	     11.89687304	     73.52744983	    112.46997759	     93.48142954	     46.65622735	      8.60235291	     57.30100813	    111.65133364	     69.64376456
      2.18333330	     -6.12395215	     -0.07244951	      0.84355168	      0.55862792	      0.95019740	     -0.22156982	     11.51883933	     -5.72374598	     -7.65410326	     10.99362766	      0.19187500	      2.07774991	    -26.00005993	     -7.49999987	      6.84835182	     -5.42279889	    -13.39744048	      4.84572027	      0.08457377	      4.80049106	    -15.32654513	     -7.49999987	     -3.26280657	      2.65690974	      0.99248894	     64.79288740	     11.91123527	     73.52673037	    112.60167965	     93.51331446	     47.26302793	      8.37680819	     55.50784720	    111.33361067	     69.59440768
      2.20000000	     -6.86608616	     -0.05048048	      0.69021006	      0.55657787	      0.94107857	     -0.22035645	     13.89560731	     -6.07010368	     -8.02086651	     13.33822244	      0.23279590	      3.12786439	    -25.91298502	     -7.49999987	      8.65875527	     -5.61386268	    -13.58075416	      6.49278458	      0.11332047	      5.36099753	    -15.81899557	     -7.49999987	     -3.69360733	      2.59735484	      0.68683003	     66.12321302	     12.68265713	     73.31205901	    111.88898511	     91.60612740	     47.80973215	      7.53227685	     53.40868325	    111.72441157	     69.10827322
      2.21666670	     -7.37049647	      0.00386556	      0.66579437	      0.55709439	      0.94168090	     -0.21976831	     16.07437718	     -6.47158964	     -8.27257463	     15.95152612	      0.27840665	      4.29733376	    -26.07089328	     -7.49999987	     10.28633036	     -5.78761669	    -13.70214906	      8.32440703	      0.14528831	      6.18935694	    -16.16519702	     -7.49999987	     -4.75373451	      2.33674117	      0.94968102	     66.95552960	     12.65256118	     73.18180897	    111.96221569	     91.84047112	     48.06090434	      7.14744870	     52.35269334	    111.59354364	     69.20461499
      2.23333330	     -8.12448295	      0.04969957	      0.75850691	      0.55060621	      0.93430395	     -0.22116077	     18.76335185	     -7.06073927	     -9.08575068	     18.94822056	      0.33070884	      6.02984127	    -25.46844038	     -7.49999987	     12.62645698	     -6.07339096	    -13.87864488	     10.78730515	      0.18827399	      7.21705285	    -16.49277087	     -7.49999987	     -5.54189292	      2.15833504	      1.38787869	     68.21299592	     12.49866786	     73.09856205	    111.95625057	     89.33605378	     48.41894213	      7.29297933	     51.09689518	    111.14381457	     68.53896604
      2.25000000	     -8.87256489	      0.04188139	      0.79644781	      0.54823333	      0.92385471	     -0.21858944	     21.65175488	     -7.58196862	     -9.54725445	     22.35134004	      0.39010448	      7.29534921	    -25.59761688	     -7.49999987	     15.20778672	     -6.61201377	    -14.12399093	     13.73100899	      0.23965132	      8.23427097	    -16.97343120	     -7.49999987	     -6.16850720	      1.90639823	      1.52709161	     69.38992991	     12.56985527	     73.10578002	    112.11560689	     88.46791866	     49.44334181	      7.23982176	     49.68103948	    111.40558213	     68.41869759
      2.26666670	     -9.69911765	      0.16860633	      0.95666272	      0.54870517	      0.92636557	     -0.21937002	     24.18540638	     -8.30729357	    -10.04016570	     25.35260419	      0.44248642	      8.85465420	    -25.06292885	     -7.49999987	     17.85416320	     -7.00277685	    -14.36104484	     16.74762647	      0.29230122	      9.33459477	    -16.96430342	     -7.49999987	     -6.64208630	      1.56900685	      1.55151791	     69.68942696	     12.45644558	     73.43101780	    112.13063785	     94.73867969	     49.47189476	      6.91260081	     48.64893348	    111.15431650	     71.90252963
      2.28333330	    -10.32789544	      0.24315965	      0.83894567	      0.54600545	      0.91948480	     -0.21641114	     26.52932767	     -8.86879024	    -10.43170630	     28.21830509	      0.49250233	     10.44891380	    -24.37320118	     -7.49999987	     20.28710866	     -7.67424269	    -14.97821285	     19.87701529	      0.34691936	     10.40534144	    -17.09073672	     -7.49999987	     -7.56256234	      1.17739689	      1.32295472	     70.48649028	     12.56520481	     74.01472789	    112.38767591	     94.72939808	     49.93774521	      6.43523804	     47.38347511	    110.54050283	     71.82682513
      2.30000000	    -10.47373898	      0.41419833	      0.90831758	      0.54264163	      0.91386915	     -0.22007938	     28.35309718	     -9.67867147	    -10.73162148	     31.15117210	      0.54369052	     11.41978046	    -24.28127071	     -7.49999987	     22.19089519	     -8.16870870	    -15.50406225	     22.97874808	      0.40105481	     11.39142101	    -17.45335590	     -7.49999987	     -9.21044051	      0.77302727	      1.05503645	     71.09012437	     12.65378637	     74.69026412	    112.70358839	     94.83143317	     50.43417063	      6.22861084	     46.43899497	    109.74814664	     71.80071785
      2.31666670	    -11.27656913	      0.59023907	      1.25806864	      0.53594176	      0.90574915	     -0.22567158	     31.15924348	    -10.99600775	    -11.52080286	     34.59661504	      0.60382484	     12.88170645	    -23.39117320	     -7.49999987	     25.25278079	     -8.58459175	    -15.96876090	     26.69090333	      0.46584414	     13.17804193	    -17.29460793	     -7.49999987	    -10.00576537	      0.68523633	      0.81325850	     72.12239667	     11.95315713	     75.13606071	    113.51125910	     94.95801803	     50.77448914	      6.64656976	     45.07455546	    109.39796978	     71.79369442
      2.33333330	    -12.39248392	      0.78779219	      1.54423356	      0.52953835	      0.89878374	     -0.22714954	     34.57887603	    -12.50590298	    -12.41592174	     38.39807012	      0.67017275	     15.22270626	    -21.07497600	     -7.49999987	     28.85851208	     -9.08254554	    -16.77476487	     30.77094802	      0.53705436	     15.44840224	    -16.28408503	     -7.49999987	    -10.72133625	      0.37677063	      0.80100415	     72.77012302	     11.30024261	     75.01908495	    114.01775456	     92.86881235	     51.30087858	      7.15030238	     43.89907023	    109.03422750	     70.91297980
      2.35000000	    -12.79195186	      1.06004116	      1.88609088	      0.53062109	      0.89438340	     -0.22633844	     36.74879232	    -13.86381136	    -12.75509332	     41.46186666	      0.72364609	     16.10503736	    -20.72965337	     -7.49999987	     31.35669256	     -9.40902878	    -17.19757598	     34.32186091	      0.59902948	     16.84167436	    -16.18776378	     -7.49999987	    -12.55534115	      0.05598156	      0.30433953	     73.76755845	     11.00826784	     74.95958620	    114.21433152	     93.09048528	     52.36358415	      7.45870515	     42.69838559	    109.03636737	     70.98606340
      2.36666670	    -13.44831845	      1.32080995	      2.19839775	      0.53141073	      0.89121382	     -0.22667295	     38.88170402	    -15.17917462	    -13.23064999	     44.07031269	      0.76917206	     17.31587622	    -19.41754558	     -7.49999987	     33.76277528	     -9.77018208	    -17.84959513	     37.36853950	      0.65220405	     18.47943918	    -15.09653966	     -7.49999987	    -14.06813891	     -0.27171123	     -0.13057881	     74.23567226	     11.03348792	     75.30971408	    114.43813259	     93.34154396	     52.83770861	      7.51421885	     41.79360748	    109.45499570	     71.10968969
